<svg aria-hidden="true" style="position: absolute; width: 0; height: 0; overflow: hidden;" version="1.1" xmlns="http://www.w3.org/2000/svg" xmlns:xlink="http://www.w3.org/1999/xlink">
<defs>
<symbol id="icon-youtube" viewBox="0 0 36 32">
<path d="M14.507 22.858l9.411-6.858-9.411-6.858v13.716zM35.469 4.96c0.236 1.074 0.399 2.514 0.508 4.342 0.127 1.829 0.181 3.406 0.181 4.778l0.109 1.92c0 5.006-0.29 8.686-0.798 11.040-0.453 2.058-1.505 3.382-3.137 3.954-0.852 0.298-2.412 0.503-4.805 0.64-2.357 0.16-4.515 0.228-6.51 0.228l-2.883 0.138c-7.598 0-12.331-0.366-14.198-1.006-1.632-0.572-2.684-1.897-3.137-3.954-0.236-1.074-0.399-2.514-0.508-4.342-0.11-1.419-0.175-3.085-0.181-4.765l-0-0.013-0.109-1.92c0-5.006 0.29-8.686 0.798-11.040 0.453-2.058 1.505-3.382 3.137-3.954 0.852-0.298 2.412-0.505 4.805-0.64 2.357-0.16 4.515-0.228 6.51-0.228l2.883-0.138c7.598 0 12.331 0.366 14.198 1.006 1.632 0.572 2.684 1.897 3.137 3.954z"></path>
</symbol>
<symbol id="icon-twitter" viewBox="0 0 36 32">
<path d="M35.376 3.765c-1.175 0.621-2.54 1.076-3.985 1.29l-0.070 0.008c1.451-0.997 2.571-2.579 3.099-4.48-1.28 0.889-2.78 1.572-4.394 1.958l-0.090 0.018c-1.301-1.619-3.131-2.56-5.209-2.56-3.874 0-7.040 3.614-7.040 8.075 0 0.64 0.067 1.262 0.181 1.845-5.868-0.339-11.093-3.557-14.572-8.433-0.603 1.166-0.956 2.544-0.956 4.006 0 0.014 0 0.029 0 0.043v-0.002c0 2.805 1.236 5.291 3.148 6.702-1.17 0-2.258-0.377-3.214-0.942v0.057c0 3.915 2.439 7.19 5.67 7.925-0.548 0.178-1.179 0.281-1.834 0.281-0.478 0-0.943-0.055-1.389-0.158l0.041 0.008c0.448 1.605 1.325 3.008 2.508 4.015s2.612 1.564 4.086 1.595c-2.499 2.258-5.598 3.481-8.786 3.463-0.56 0-1.121-0.037-1.681-0.113 3.131 2.297 6.858 3.633 10.847 3.633 12.99 0 20.128-12.31 20.128-22.983 0-0.357 0-0.697-0.017-1.054 1.385-1.131 2.572-2.56 3.527-4.198z"></path>
</symbol>
<symbol id="icon-inst" viewBox="0 0 32 32">
<path d="M9.28 0h13.44c5.12 0 9.28 4.16 9.28 9.28v13.44c0 5.125-4.155 9.28-9.28 9.28h-13.44c-5.12 0-9.28-4.16-9.28-9.28v-13.44c0-5.125 4.155-9.28 9.28-9.28v0zM8.96 3.2c-3.181 0-5.76 2.579-5.76 5.76v0 14.080c0 3.184 2.576 5.76 5.76 5.76h14.080c3.181 0 5.76-2.579 5.76-5.76v0-14.080c0-3.184-2.576-5.76-5.76-5.76h-14.080zM24.4 5.6c1.105 0 2 0.895 2 2s-0.895 2-2 2v0c-1.105 0-2-0.895-2-2s0.895-2 2-2v0zM16 8c4.418 0 8 3.582 8 8s-3.582 8-8 8v0c-4.418 0-8-3.582-8-8s3.582-8 8-8v0zM16 11.2c-2.651 0-4.8 2.149-4.8 4.8s2.149 4.8 4.8 4.8v0c2.651 0 4.8-2.149 4.8-4.8s-2.149-4.8-4.8-4.8v0z"></path>
</symbol>
</defs>
</svg>
